<svg width="866" height="212" viewBox="0 0 866 212" fill="none" xmlns="http://www.w3.org/2000/svg">
<path d="M865.445 13.5878H836.865V29.3805H849.603V184.372H836.865V200.165H865.445V13.5878Z" fill="white" fill-opacity="0.6"/>
<path d="M29.3087 13.5878H0.729004V200.165H29.3087V184.372H16.5703V29.3805H29.3087V13.5878Z" fill="white" fill-opacity="0.6"/>
<path d="M822.096 0.916504H779.215V16.7325H806.255V195.623H779.215V211.439H822.096V0.916504Z" fill="white" fill-opacity="0.8"/>
<path d="M86.958 0.916504H44.0769V211.439H86.958V195.623H59.9182V16.7325H86.958V0.916504Z" fill="white" fill-opacity="0.8"/>
<path d="M89.5398 162.011H100.058L145.77 32.3626H170.245L215.958 162.011H226.476V173.32H172.065V162.011H189.46L177.931 128.69H126.353L115.228 162.011H132.623V173.32H89.5398V162.011ZM129.993 116.978H174.493L152.85 52.1532H151.838L129.993 116.978Z" fill="white"/>
<path d="M269.429 174.936C261.338 174.936 255.607 173.32 252.236 170.089C249 166.858 247.382 161.607 247.382 154.337V80.6274H233.425V68.3088H236.864C239.426 68.3088 241.583 68.1068 243.337 67.7029C245.089 67.299 246.505 66.6932 247.584 65.8854C248.663 64.943 249.539 63.866 250.214 62.6543C251.023 61.308 251.764 59.7598 252.439 58.0096L259.113 40.2384H271.654V68.3088H297.342V80.6274H271.654V161.203H297.342V170.695C295.05 171.772 291.274 172.714 286.015 173.522C280.756 174.465 275.227 174.936 269.429 174.936Z" fill="white"/>
<path d="M308.279 162.011H322.235V37.2092L308.279 34.584V25.2945L346.508 17.8225V84.4644H347.519C348.463 82.1757 349.744 79.9543 351.362 77.8002C353.115 75.5115 355.205 73.492 357.632 71.7418C360.194 69.9916 363.094 68.578 366.33 67.501C369.701 66.424 373.477 65.8854 377.657 65.8854C390.737 65.8854 399.974 69.1839 405.368 75.7807C410.896 82.243 413.661 92.0037 413.661 105.063V162.011H427.617V173.32H375.837V162.011H389.389V106.274C389.389 97.9274 387.703 91.8017 384.332 87.8975C381.095 83.8586 375.837 81.8391 368.555 81.8391C365.858 81.8391 363.228 82.243 360.666 83.0508C358.104 83.7239 355.745 84.8009 353.587 86.2819C351.429 87.7628 349.676 89.6476 348.328 91.9363C347.114 94.2251 346.508 96.9177 346.508 100.014V162.011H360.06V173.32H308.279V162.011Z" fill="white"/>
<path d="M493.222 175.744C485.131 175.744 477.917 174.397 471.579 171.705C465.376 169.012 460.05 165.242 455.6 160.396C451.285 155.549 447.981 149.76 445.689 143.028C443.531 136.297 442.452 128.892 442.452 120.814C442.452 112.467 443.666 104.928 446.093 98.1966C448.52 91.4651 451.892 85.7434 456.207 81.0313C460.657 76.1846 465.848 72.4823 471.781 69.9243C477.849 67.2317 484.524 65.8854 491.806 65.8854C499.088 65.8854 505.628 67.0971 511.426 69.5204C517.359 71.8092 522.348 75.1076 526.394 79.4157C530.574 83.7239 533.743 88.9072 535.9 94.9655C538.058 101.024 539.137 107.688 539.137 114.958V120.814H468.747V127.277C468.747 137.374 471.377 145.25 476.636 150.904C481.895 156.424 488.974 159.184 497.874 159.184C505.83 159.184 512.168 157.568 516.887 154.337C521.607 150.972 525.18 146.731 527.607 141.615L536.912 147.067C535.698 150.568 533.878 154.001 531.45 157.367C529.023 160.732 525.989 163.829 522.348 166.656C518.842 169.349 514.662 171.57 509.808 173.32C504.953 174.936 499.425 175.744 493.222 175.744ZM468.747 109.708H514.055V107.284C514.055 97.8601 512.235 90.59 508.594 85.4741C504.953 80.3582 499.425 77.8002 492.008 77.8002C484.457 77.8002 478.658 80.2908 474.613 85.2722C470.703 90.2535 468.747 97.4562 468.747 106.88V109.708Z" fill="white"/>
<path d="M556.04 162.011H569.997V85.2722L556.04 82.6469V73.3574L593.662 65.8854V84.8683H594.674C595.483 82.5796 596.764 80.2908 598.517 78.0021C600.27 75.7134 602.36 73.694 604.787 71.9438C607.349 70.059 610.316 68.578 613.687 67.501C617.193 66.424 621.103 65.8854 625.418 65.8854C638.498 65.8854 647.735 69.1839 653.129 75.7807C658.658 82.243 661.422 92.0037 661.422 105.063V162.011H675.379V173.32H623.598V162.011H637.15V106.274C637.15 97.9274 635.464 91.8017 632.093 87.8975C628.857 83.8586 623.598 81.8391 616.316 81.8391C613.619 81.8391 610.922 82.243 608.226 83.0508C605.664 83.7239 603.304 84.8009 601.146 86.2819C599.123 87.7628 597.438 89.6476 596.089 91.9363C594.876 94.2251 594.269 96.9177 594.269 100.014V162.011H607.821V173.32H556.04V162.011Z" fill="white"/>
<path d="M735.056 175.744C728.044 175.744 722.313 174.397 717.863 171.705C713.548 169.012 710.716 166.05 709.368 162.819H708.559V173.32H692.175V141.817H708.559V145.452C708.559 150.972 710.244 155.347 713.615 158.578C717.121 161.675 722.92 163.223 731.01 163.223C738.292 163.223 743.753 162.079 747.394 159.79C751.035 157.367 752.855 153.597 752.855 148.481C752.855 140.807 747.596 135.758 737.078 133.335L725.751 130.71C714.694 128.286 706.468 124.382 701.075 118.997C695.681 113.612 692.984 106.409 692.984 97.3889C692.984 87.4262 696.355 79.685 703.097 74.1652C709.84 68.6454 718.942 65.8854 730.404 65.8854C737.281 65.8854 742.742 67.0298 746.787 69.3185C750.967 71.6072 753.597 74.4344 754.676 77.8002H755.485V68.3088H771.869V99.8122H755.485V93.9558C755.485 88.8399 753.732 85.0029 750.226 82.4449C746.855 79.7523 741.326 78.406 733.64 78.406C727.572 78.406 722.92 79.5504 719.683 81.8391C716.447 84.1278 714.829 87.4936 714.829 91.9363C714.829 100.149 720.155 105.467 730.808 107.89L741.326 110.313C752.383 112.871 760.676 116.641 766.205 121.622C771.869 126.604 774.7 133.874 774.7 143.432C774.7 148.279 773.756 152.722 771.869 156.761C769.981 160.665 767.284 164.031 763.778 166.858C760.407 169.685 756.294 171.839 751.439 173.32C746.585 174.936 741.124 175.744 735.056 175.744Z" fill="white"/>
</svg>
