<svg width="1060" height="440" viewBox="0 0 1060 440" fill="none" xmlns="http://www.w3.org/2000/svg">
<path d="M962.445 127.588H933.865V143.38H946.603V298.372H933.865V314.165H962.445V127.588Z" fill="black"/>
<path d="M126.309 127.588H97.729V314.165H126.309V298.372H113.57V143.38H126.309V127.588Z" fill="black"/>
<path d="M919.097 114.916H876.215V130.732H903.255V309.623H876.215V325.439H919.097V114.916Z" fill="black"/>
<path d="M183.958 114.916H141.077V325.439H183.958V309.623H156.918V130.732H183.958V114.916Z" fill="black"/>
<path d="M186.54 276.011H197.058L242.771 146.363H267.245L312.958 276.011H323.476V287.32H269.066V276.011H286.461L274.931 242.69H223.353L212.228 276.011H229.623V287.32H186.54V276.011ZM226.994 230.978H271.493L249.85 166.153H248.839L226.994 230.978Z" fill="black"/>
<path d="M366.429 288.936C358.339 288.936 352.608 287.32 349.237 284.089C346 280.858 344.382 275.607 344.382 268.337V194.627H330.426V182.309H333.864C336.426 182.309 338.584 182.107 340.337 181.703C342.09 181.299 343.506 180.693 344.584 179.885C345.663 178.943 346.54 177.866 347.214 176.654C348.023 175.308 348.765 173.76 349.439 172.01L356.114 154.238H368.654V182.309H394.342V194.627H368.654V275.203H394.342V284.695C392.05 285.772 388.274 286.714 383.015 287.522C377.756 288.465 372.228 288.936 366.429 288.936Z" fill="black"/>
<path d="M405.279 276.011H419.236V151.209L405.279 148.584V139.294L443.508 131.823V198.464H444.519C445.463 196.176 446.744 193.954 448.362 191.8C450.115 189.511 452.205 187.492 454.633 185.742C457.195 183.992 460.094 182.578 463.33 181.501C466.701 180.424 470.477 179.885 474.657 179.885C487.737 179.885 496.974 183.184 502.368 189.781C507.897 196.243 510.661 206.004 510.661 219.063V276.011H524.617V287.32H472.837V276.011H486.389V220.274C486.389 211.927 484.703 205.802 481.332 201.897C478.096 197.859 472.837 195.839 465.555 195.839C462.858 195.839 460.229 196.243 457.667 197.051C455.105 197.724 452.745 198.801 450.587 200.282C448.43 201.763 446.677 203.648 445.328 205.936C444.115 208.225 443.508 210.918 443.508 214.014V276.011H457.06V287.32H405.279V276.011Z" fill="black"/>
<path d="M590.222 289.744C582.131 289.744 574.917 288.397 568.579 285.705C562.376 283.012 557.05 279.242 552.6 274.396C548.285 269.549 544.981 263.76 542.689 257.028C540.531 250.297 539.453 242.892 539.453 234.814C539.453 226.467 540.666 218.928 543.093 212.197C545.521 205.465 548.892 199.743 553.207 195.031C557.657 190.185 562.848 186.482 568.781 183.924C574.85 181.232 581.524 179.885 588.806 179.885C596.088 179.885 602.628 181.097 608.426 183.52C614.359 185.809 619.349 189.108 623.394 193.416C627.574 197.724 630.743 202.907 632.901 208.966C635.058 215.024 636.137 221.688 636.137 228.958V234.814H565.747V241.277C565.747 251.374 568.377 259.25 573.636 264.904C578.895 270.424 585.974 273.184 594.874 273.184C602.83 273.184 609.168 271.568 613.887 268.337C618.607 264.972 622.18 260.731 624.608 255.615L633.912 261.067C632.698 264.568 630.878 268.001 628.451 271.367C626.023 274.732 622.989 277.829 619.349 280.656C615.843 283.349 611.662 285.57 606.808 287.32C601.954 288.936 596.425 289.744 590.222 289.744ZM565.747 223.708H611.056V221.284C611.056 211.86 609.235 204.59 605.594 199.474C601.954 194.358 596.425 191.8 589.008 191.8C581.457 191.8 575.659 194.291 571.613 199.272C567.703 204.253 565.747 211.456 565.747 220.88V223.708Z" fill="black"/>
<path d="M653.041 276.011H666.997V199.272L653.041 196.647V187.357L690.662 179.885V198.868H691.674C692.483 196.58 693.764 194.291 695.517 192.002C697.27 189.713 699.36 187.694 701.787 185.944C704.349 184.059 707.316 182.578 710.687 181.501C714.193 180.424 718.104 179.885 722.419 179.885C735.499 179.885 744.736 183.184 750.129 189.781C755.658 196.243 758.422 206.004 758.422 219.063V276.011H772.379V287.32H720.598V276.011H734.15V220.274C734.15 211.927 732.465 205.802 729.094 201.897C725.857 197.859 720.598 195.839 713.317 195.839C710.62 195.839 707.923 196.243 705.226 197.051C702.664 197.724 700.304 198.801 698.146 200.282C696.124 201.763 694.438 203.648 693.09 205.936C691.876 208.225 691.269 210.918 691.269 214.014V276.011H704.821V287.32H653.041V276.011Z" fill="black"/>
<path d="M832.056 289.744C825.044 289.744 819.313 288.397 814.863 285.705C810.548 283.012 807.716 280.05 806.368 276.819H805.559V287.32H789.175V255.817H805.559V259.452C805.559 264.972 807.244 269.347 810.615 272.578C814.121 275.675 819.92 277.223 828.011 277.223C835.292 277.223 840.754 276.079 844.394 273.79C848.035 271.367 849.856 267.597 849.856 262.481C849.856 254.807 844.597 249.758 834.079 247.335L822.752 244.71C811.694 242.286 803.469 238.382 798.075 232.997C792.681 227.612 789.984 220.409 789.984 211.389C789.984 201.426 793.355 193.685 800.098 188.165C806.84 182.645 815.942 179.885 827.404 179.885C834.281 179.885 839.742 181.03 843.788 183.318C847.968 185.607 850.597 188.434 851.676 191.8H852.485V182.309H868.869V213.812H852.485V207.956C852.485 202.84 850.732 199.003 847.226 196.445C843.855 193.752 838.326 192.406 830.64 192.406C824.572 192.406 819.92 193.55 816.684 195.839C813.447 198.128 811.829 201.494 811.829 205.936C811.829 214.149 817.155 219.467 827.808 221.89L838.326 224.313C849.384 226.871 857.677 230.641 863.205 235.622C868.869 240.604 871.701 247.874 871.701 257.432C871.701 262.279 870.757 266.722 868.869 270.761C866.981 274.665 864.284 278.031 860.778 280.858C857.407 283.685 853.294 285.839 848.44 287.32C843.585 288.936 838.124 289.744 832.056 289.744Z" fill="black"/>
</svg>
