<svg width="400" height="309" viewBox="0 0 400 309" fill="none" xmlns="http://www.w3.org/2000/svg">
<path fill-rule="evenodd" clip-rule="evenodd" d="M0.000488281 19.0083V289.876H35.2806V273.273H16.4755V35.6108H35.2806V19.0083H0.000488281Z" fill="white"/>
<path fill-rule="evenodd" clip-rule="evenodd" d="M399.841 19.0083V289.876H364.561V273.273H383.366V35.6108H364.561V19.0083H399.841Z" fill="white"/>
<path fill-rule="evenodd" clip-rule="evenodd" d="M49.3921 0V308.884H105.84V292.154H65.8878V16.7326H105.84V0H49.3921Z" fill="white"/>
<path fill-rule="evenodd" clip-rule="evenodd" d="M350.449 0V308.884H294.001V292.154H333.953V16.7326H294.001V0H350.449Z" fill="white"/>
<path fill-rule="evenodd" clip-rule="evenodd" d="M159.806 172.053H225.401L193.498 75.37H192.007L159.806 172.053ZM100.175 239.221H115.679L183.062 45.8525H219.14L286.52 239.221H302.024V256.086H221.821V239.221H247.465L230.469 189.524H154.441L138.042 239.221H163.682V256.086H100.175V239.221Z" fill="white"/>
</svg>
