<svg width="600" height="600" viewBox="0 0 600 600" fill="none" xmlns="http://www.w3.org/2000/svg">
<path fill-rule="evenodd" clip-rule="evenodd" d="M100 165.008V435.876H135.281V419.273H116.476V181.611H135.281V165.008H100Z" fill="black"/>
<path fill-rule="evenodd" clip-rule="evenodd" d="M499.841 165.008V435.876H464.561V419.273H483.366V181.611H464.561V165.008H499.841Z" fill="black"/>
<path fill-rule="evenodd" clip-rule="evenodd" d="M149.392 146V454.884H205.84V438.154H165.888V162.733H205.84V146H149.392Z" fill="black"/>
<path fill-rule="evenodd" clip-rule="evenodd" d="M450.449 146V454.884H394.001V438.154H433.953V162.733H394.001V146H450.449Z" fill="black"/>
<path fill-rule="evenodd" clip-rule="evenodd" d="M259.806 318.053H325.401L293.498 221.37H292.007L259.806 318.053ZM200.175 385.221H215.68L283.062 191.852H319.14L386.52 385.221H402.025V402.086H321.821V385.221H347.465L330.469 335.524H254.441L238.043 385.221H263.682V402.086H200.175V385.221Z" fill="black"/>
</svg>
