<svg width="600" height="600" viewBox="0 0 600 600" fill="none" xmlns="http://www.w3.org/2000/svg">
<rect width="600" height="600" fill="white"/>
<path fill-rule="evenodd" clip-rule="evenodd" d="M100 165.035V436.285H135.281V419.659H116.476V181.661H135.281V165.035H100Z" fill="black" fill-opacity="0.45"/>
<path fill-rule="evenodd" clip-rule="evenodd" d="M499.841 165.035V436.285H464.561V419.659H483.366V181.661H464.561V165.035H499.841Z" fill="black" fill-opacity="0.45"/>
<path fill-rule="evenodd" clip-rule="evenodd" d="M149.392 146V455.32H205.84V438.566H165.888V162.756H205.84V146H149.392Z" fill="black" fill-opacity="0.7"/>
<path fill-rule="evenodd" clip-rule="evenodd" d="M450.449 146V455.32H394.001V438.566H433.953V162.756H394.001V146H450.449Z" fill="black" fill-opacity="0.7"/>
<path fill-rule="evenodd" clip-rule="evenodd" d="M259.806 318.296H325.401L293.498 221.476H292.007L259.806 318.296ZM200.175 385.558H215.679L283.062 191.917H319.14L386.52 385.558H402.024V402.447H321.821V385.558H347.465L330.469 335.791H254.441L238.042 385.558H263.682V402.447H200.175V385.558Z" fill="black"/>
</svg>
