<svg width="400" height="310" viewBox="0 0 400 310" fill="none" xmlns="http://www.w3.org/2000/svg">
<path fill-rule="evenodd" clip-rule="evenodd" d="M0.000488281 19.0352V290.285H35.2806V273.659H16.4755V35.6611H35.2806V19.0352H0.000488281Z" fill="black" fill-opacity="0.45"/>
<path fill-rule="evenodd" clip-rule="evenodd" d="M399.841 19.0352V290.285H364.561V273.659H383.366V35.6611H364.561V19.0352H399.841Z" fill="black" fill-opacity="0.45"/>
<path fill-rule="evenodd" clip-rule="evenodd" d="M49.3921 0V309.32H105.84V292.566H65.8878V16.7562H105.84V0H49.3921Z" fill="black" fill-opacity="0.7"/>
<path fill-rule="evenodd" clip-rule="evenodd" d="M350.449 0V309.32H294.001V292.566H333.953V16.7562H294.001V0H350.449Z" fill="black" fill-opacity="0.7"/>
<path fill-rule="evenodd" clip-rule="evenodd" d="M159.806 172.296H225.401L193.498 75.4761H192.007L159.806 172.296ZM100.175 239.558H115.679L183.062 45.917H219.14L286.52 239.558H302.024V256.447H221.821V239.558H247.465L230.469 189.791H154.441L138.042 239.558H163.682V256.447H100.175V239.558Z" fill="black"/>
</svg>
